<mxfile host="app.diagrams.net" modified="2023-06-03T09:07:10.312Z" agent="Mozilla/5.0 (Windows NT 10.0; Win64; x64) AppleWebKit/537.36 (KHTML, like Gecko) Chrome/114.0.0.0 Safari/537.36" etag="AoFY_IVzxmSwWTZvb5DA" version="21.2.9" type="device">
  <diagram id="PKfgpwBmVT9mVAi820yN" name="第 1 页">
    <mxGraphModel dx="519" dy="602" grid="1" gridSize="10" guides="1" tooltips="1" connect="1" arrows="1" fold="1" page="1" pageScale="1" pageWidth="3300" pageHeight="4681" math="0" shadow="0">
      <root>
        <mxCell id="0" />
        <mxCell id="1" parent="0" />
        <mxCell id="rjjlBSl8TxCraREon6u_-1" value="SimpleKV（Key-Value内存数据库）" style="rounded=1;whiteSpace=wrap;html=1;fillColor=#d5e8d4;strokeColor=#82b366;" vertex="1" parent="1">
          <mxGeometry x="870" y="570" width="210" height="60" as="geometry" />
        </mxCell>
        <mxCell id="rjjlBSl8TxCraREon6u_-2" value="Lvgl 图形库" style="rounded=1;whiteSpace=wrap;html=1;fillColor=#e1d5e7;strokeColor=#9673a6;" vertex="1" parent="1">
          <mxGeometry x="1090" y="570" width="210" height="60" as="geometry" />
        </mxCell>
        <mxCell id="rjjlBSl8TxCraREon6u_-4" value="" style="rounded=1;whiteSpace=wrap;html=1;fillColor=#d5e8d4;strokeColor=#82b366;" vertex="1" parent="1">
          <mxGeometry x="860" y="270" width="450" height="290" as="geometry" />
        </mxCell>
        <mxCell id="rjjlBSl8TxCraREon6u_-5" value="MooncakeUI 框架" style="text;html=1;strokeColor=none;fillColor=none;align=center;verticalAlign=middle;whiteSpace=wrap;rounded=0;" vertex="1" parent="1">
          <mxGeometry x="1020" y="270" width="130" height="30" as="geometry" />
        </mxCell>
        <mxCell id="rjjlBSl8TxCraREon6u_-6" value="App 生命周期管理框架" style="rounded=1;whiteSpace=wrap;html=1;fillColor=#fff2cc;strokeColor=#d6b656;" vertex="1" parent="1">
          <mxGeometry x="880" y="450" width="410" height="40" as="geometry" />
        </mxCell>
        <mxCell id="rjjlBSl8TxCraREon6u_-7" value="" style="rounded=1;whiteSpace=wrap;html=1;fillColor=#fff2cc;strokeColor=#d6b656;" vertex="1" parent="1">
          <mxGeometry x="880" y="310" width="100" height="125" as="geometry" />
        </mxCell>
        <mxCell id="rjjlBSl8TxCraREon6u_-8" value="" style="rounded=1;whiteSpace=wrap;html=1;fillColor=#fff2cc;strokeColor=#d6b656;" vertex="1" parent="1">
          <mxGeometry x="1000" y="310" width="290" height="125" as="geometry" />
        </mxCell>
        <mxCell id="rjjlBSl8TxCraREon6u_-9" value="系统内置 App" style="text;html=1;strokeColor=none;fillColor=none;align=center;verticalAlign=middle;whiteSpace=wrap;rounded=0;" vertex="1" parent="1">
          <mxGeometry x="1080" y="310" width="130" height="30" as="geometry" />
        </mxCell>
        <mxCell id="rjjlBSl8TxCraREon6u_-10" value="App 基类、安装卸载框架" style="rounded=1;whiteSpace=wrap;html=1;fillColor=#fff2cc;strokeColor=#d6b656;" vertex="1" parent="1">
          <mxGeometry x="880" y="500" width="410" height="40" as="geometry" />
        </mxCell>
        <mxCell id="rjjlBSl8TxCraREon6u_-12" value="启动动画" style="rounded=1;whiteSpace=wrap;html=1;fillColor=#dae8fc;strokeColor=#6c8ebf;" vertex="1" parent="1">
          <mxGeometry x="1010" y="350" width="70" height="30" as="geometry" />
        </mxCell>
        <mxCell id="rjjlBSl8TxCraREon6u_-13" value="启动器" style="rounded=1;whiteSpace=wrap;html=1;fillColor=#dae8fc;strokeColor=#6c8ebf;" vertex="1" parent="1">
          <mxGeometry x="1010" y="390" width="70" height="30" as="geometry" />
        </mxCell>
        <mxCell id="rjjlBSl8TxCraREon6u_-14" value="动画表盘" style="rounded=1;whiteSpace=wrap;html=1;fillColor=#dae8fc;strokeColor=#6c8ebf;" vertex="1" parent="1">
          <mxGeometry x="1170" y="390" width="110" height="30" as="geometry" />
        </mxCell>
        <mxCell id="rjjlBSl8TxCraREon6u_-15" value="用户自定义表盘" style="rounded=1;whiteSpace=wrap;html=1;fillColor=#dae8fc;strokeColor=#6c8ebf;" vertex="1" parent="1">
          <mxGeometry x="1170" y="350" width="110" height="30" as="geometry" />
        </mxCell>
        <mxCell id="rjjlBSl8TxCraREon6u_-16" value="画板" style="rounded=1;whiteSpace=wrap;html=1;fillColor=#dae8fc;strokeColor=#6c8ebf;" vertex="1" parent="1">
          <mxGeometry x="1090" y="350" width="70" height="30" as="geometry" />
        </mxCell>
        <mxCell id="rjjlBSl8TxCraREon6u_-17" value="设置" style="rounded=1;whiteSpace=wrap;html=1;fillColor=#dae8fc;strokeColor=#6c8ebf;" vertex="1" parent="1">
          <mxGeometry x="1090" y="390" width="70" height="30" as="geometry" />
        </mxCell>
        <mxCell id="rjjlBSl8TxCraREon6u_-18" value="用户 App" style="text;html=1;strokeColor=none;fillColor=none;align=center;verticalAlign=middle;whiteSpace=wrap;rounded=0;" vertex="1" parent="1">
          <mxGeometry x="865" y="310" width="130" height="30" as="geometry" />
        </mxCell>
        <mxCell id="rjjlBSl8TxCraREon6u_-20" value="Anything" style="rounded=1;whiteSpace=wrap;html=1;fillColor=#dae8fc;strokeColor=#6c8ebf;" vertex="1" parent="1">
          <mxGeometry x="888.75" y="350" width="82.5" height="70" as="geometry" />
        </mxCell>
        <mxCell id="rjjlBSl8TxCraREon6u_-21" value="" style="rounded=1;whiteSpace=wrap;html=1;fillColor=#d5e8d4;strokeColor=#82b366;" vertex="1" parent="1">
          <mxGeometry x="860" y="640" width="450" height="130" as="geometry" />
        </mxCell>
        <mxCell id="rjjlBSl8TxCraREon6u_-22" value="HAL 硬件抽象层" style="rounded=1;whiteSpace=wrap;html=1;fillColor=#fff2cc;strokeColor=#d6b656;" vertex="1" parent="1">
          <mxGeometry x="880" y="710" width="410" height="40" as="geometry" />
        </mxCell>
        <mxCell id="rjjlBSl8TxCraREon6u_-23" value="Hardware Manager 硬件管理层" style="rounded=1;whiteSpace=wrap;html=1;fillColor=#fff2cc;strokeColor=#d6b656;" vertex="1" parent="1">
          <mxGeometry x="880" y="660" width="410" height="40" as="geometry" />
        </mxCell>
      </root>
    </mxGraphModel>
  </diagram>
</mxfile>
